@startuml
state "Init" as T01_S001
T01_S001 : SMVDelegatedCallRequest
[*] --> T01_S001
T01_S001 --> [*] : [(...).pulseSlot.State()!=conveyor.Present]
T01_S001 --> T01_S003 : Migrate: s.migrationDefault
state "migrationDefault" as T01_S002
T01_S002 : SMVDelegatedCallRequest
T01_S002 --> [*]
state "s.messageSender" as T01_S007 <<sdlreceive>>
state "stepBuildResponse" as T01_S006
T01_S006 : SMVDelegatedCallRequest
T01_S006 --[dotted]> T01_S002
T01_S006 --> T01_S007 : PrepareAsync(ctx).WithoutAutoWakeUp()
T01_S006 --> [*]
state "stepProcess" as T01_S003
T01_S003 : SMVDelegatedCallRequest
T01_S003 --[dotted]> T01_S002
T01_S003 --> T01_S004
state "stepProcessRequest" as T01_S005
T01_S005 : SMVDelegatedCallRequest
T01_S005 --[dotted]> T01_S002
T01_S005 --[dashed]> T01_S005 : [smachine.NotPassed]\nWaitShared
T01_S005 --> [*] : [delegationOldRequest]\nError
T01_S005 --> [*] : [delegationFullTable]\nError
T01_S005 --> T01_S006
state "stepWaitObjectReady" as T01_S004
T01_S004 : SMVDelegatedCallRequest
T01_S004 --[dotted]> T01_S002
T01_S004 --[dashed]> T01_S004 : [smachine.NotPassed]\n[(...).AcquireForThisStep().IsNotPassed()]...\nWaitShared, Sleep
T01_S004 --> T01_S005
state "GetInitStateFor" as T00_S001
T00_S001 : dSMVDelegatedCallRequest
[*] --> T00_S001
state "s.Init" as T00_U001
T00_U001 : dSMVDelegatedCallRequest
T00_U001 : UNKNOWN 
T00_S001 --> T00_U001
@enduml
