@startuml
state "GetInitStateFor" as T00_S001
T00_S001 : AppEventSM
[*] --> T00_S001
T00_S001 --> T00_S002
state "migrateToClosing" as T00_S004
T00_S004 : AppEventSM
T00_S004 --> T00_S005 : Migrate: <nil>
state "stepClosingRun" as T00_S005
T00_S005 : AppEventSM
T00_S005 --> T00_S005 : [wait.GetDecision().IsNotPassed()]
T00_S005 --> [*]
state "stepInit" as T00_S002
T00_S002 : AppEventSM
T00_S002 --> T00_S003 : Migrate: sm.migrateToClosing
state "stepRun" as T00_S003
T00_S003 : AppEventSM
T00_S003 --[dotted]> T00_S004
T00_S003 --[dashed]> T00_S003 : Poll
@enduml
